HIERARCHY
ROOT joint_0
{
	OFFSET 0.000000 0.000000 0.000000
	CHANNELS 6 Xposition Yposition Zposition Zrotation Yrotation Xrotation 
	JOINT joint_1
	{
		OFFSET 1.363060 -1.794630 0.839290
		CHANNELS 3 Zrotation Yrotation Xrotation
		JOINT joint_2
		{
			OFFSET 2.448110 -6.726130 0.000000
			CHANNELS 3 Zrotation Yrotation Xrotation
			JOINT joint_3
			{
				OFFSET 2.562200 -7.039590 0.000000
				CHANNELS 3 Zrotation Yrotation Xrotation
				JOINT joint_4
				{
					OFFSET 0.157640 -0.433110 2.322550
					CHANNELS 3 Zrotation Yrotation Xrotation
					End Site
					{
						OFFSET 0.000000 0.000000 0.000000
					}
				}
			}
		}
	}
	JOINT joint_5
	{
		OFFSET -1.305520 -1.794630 0.839290
		CHANNELS 3 Zrotation Yrotation Xrotation
		JOINT joint_6
		{
			OFFSET -2.542530 -6.985550 0.000000
			CHANNELS 3 Zrotation Yrotation Xrotation
			JOINT joint_7
			{
				OFFSET -2.568260 -7.056230 0.000000
				CHANNELS 3 Zrotation Yrotation Xrotation
				JOINT joint_8
				{
					OFFSET -0.164730 -0.452590 2.363150
					CHANNELS 3 Zrotation Yrotation Xrotation
					End Site
					{
						OFFSET 0.000000 0.000000 0.000000
					}
				}
			}
		}
	}
	JOINT joint_9
	{
		OFFSET 0.028270 2.035590 -0.193380
		CHANNELS 3 Zrotation Yrotation Xrotation
		JOINT joint_10
		{
			OFFSET 0.056720 4.548850 -0.042750
			CHANNELS 3 Zrotation Yrotation Xrotation
			JOINT joint_11
			{
				OFFSET -0.054170 1.746240 0.172020
				CHANNELS 3 Zrotation Yrotation Xrotation
				JOINT joint_12
				{
					OFFSET 0.104070 1.761360 -0.123970
					CHANNELS 3 Zrotation Yrotation Xrotation
					End Site
					{
						OFFSET 0.000000 0.000000 0.000000
					}
				}
			}
			JOINT joint_13
			{
				OFFSET 3.362410 1.200890 -0.311210
				CHANNELS 3 Zrotation Yrotation Xrotation
				JOINT joint_14
				{
					OFFSET 5.783000 0.000000 0.000000
					CHANNELS 3 Zrotation Yrotation Xrotation
					JOINT joint_15
					{
						OFFSET 6.683559 0.000000 0.000000
						CHANNELS 3 Zrotation Yrotation Xrotation
						JOINT joint_16
						{
							OFFSET 0.000000 0.000000 0.000000
							CHANNELS 3 Zrotation Yrotation Xrotation
							End Site
							{
								OFFSET 0.000000 0.000000 0.000000
							}
						}
					}
				}
			}
			JOINT joint_17
			{
				OFFSET -2.136613 1.374050 -0.404650
				CHANNELS 3 Zrotation Yrotation Xrotation
				JOINT joint_18
				{
					OFFSET -0.741900 0.000000 0.000000
					CHANNELS 3 Zrotation Yrotation Xrotation
					JOINT joint_19
					{
						OFFSET -0.744170 0.000000 0.000000
						CHANNELS 3 Zrotation Yrotation Xrotation
						JOINT joint_20
						{
							OFFSET 0.000000 0.000000 0.000000
							CHANNELS 3 Zrotation Yrotation Xrotation
							End Site
							{
								OFFSET 0.000000 0.000000 0.000000
							}
						}
					}
				}
			}
		}
	}
}
MOTION
Frames: 16
Frame Time: 0.031667
-9.504039 13.213994 1.398569 -12.802456 78.930977 -3.364663 -1.316929 12.201355 -46.748703 -6.290688 10.790532 39.863842 -8.209450 17.717546 7.866727 0.679855 5.416033 15.052519 -4.998652 -14.484444 -20.470845 -0.307990 -22.273096 74.265350 12.523473 -7.061791 -10.439414 -7.219422 -15.675473 39.978938 1.790371 -5.349793 -6.311777 -4.390663 -0.352188 29.157859 1.220929 1.529327 11.119790 1.773293 2.882898 -28.329975 -65.979914 -67.128820 -2.999662 23.084857 -35.571854 -13.480408 15.167707 -4.710652 -0.321392 -6.784474 -0.021015 0.018111 68.047100 57.391115 27.049183 -28.242146 27.133547 -31.231541 -12.988916 -3.738066 -0.035393 6.987972 -0.032023 -0.025793 
-9.044865 13.234505 1.380784 -15.252708 78.662460 -5.019760 -1.769465 12.216523 -47.963755 -6.480246 11.684594 42.145145 -8.081422 17.747108 8.031237 0.586283 5.024399 13.935691 -4.619903 -14.542661 -20.244806 -0.521835 -21.960880 74.873991 12.646950 -7.172295 -10.614975 -6.704554 -15.048186 38.879995 1.671481 -4.755091 -6.422451 -4.247717 -0.467888 28.767729 1.179760 1.556073 10.828526 2.441315 3.139339 -27.779530 -71.205287 -66.721602 3.727394 23.339875 -34.153704 -14.603378 14.874050 -3.898894 -0.524336 -6.791955 -0.017961 0.020384 69.144292 54.752692 27.319800 -28.811880 27.141437 -32.814602 -13.114907 -3.913263 -0.083777 6.992751 -0.029567 -0.022784 
-8.582102 13.253814 1.375227 -16.009581 78.725639 -5.274573 -2.276611 12.185761 -49.127757 -7.087681 12.685381 44.581317 -7.918940 17.714717 8.242347 0.501620 4.638588 12.841129 -4.225683 -14.438077 -20.096207 -0.683555 -21.736277 75.580111 12.950269 -7.393091 -10.604490 -5.994662 -14.186020 37.427240 1.551956 -4.200116 -6.505130 -4.164511 -0.699652 28.352159 1.145227 1.548905 10.497040 3.225206 3.378896 -27.098301 -75.796538 -65.943794 9.800047 23.631784 -32.721439 -15.772581 14.608685 -3.068677 -0.749727 -6.802877 -0.014281 0.023241 70.094204 51.991152 27.543646 -29.502202 27.203881 -34.631363 -13.285721 -4.201385 -0.111478 6.999956 -0.026646 -0.019137 
-8.108243 13.300405 1.390545 -14.743326 79.047958 -3.570675 -2.892492 11.955454 -50.189120 -7.762294 13.705051 46.948714 -7.728163 17.609821 8.454904 0.437521 4.317641 11.932060 -3.801555 -14.189944 -20.086225 -0.701152 -21.596708 76.355231 13.284711 -7.673954 -10.380106 -5.178871 -13.181149 35.680511 1.433423 -3.694097 -6.565486 -4.162072 -1.012523 27.887389 1.098179 1.518335 10.134784 4.124468 3.632559 -26.310851 -79.787295 -64.940067 15.241549 24.033850 -31.277752 -16.998653 14.424304 -2.366602 -1.032422 -6.815044 -0.010084 0.026470 70.975721 49.300311 27.854846 -30.285817 27.341792 -36.663896 -13.487350 -4.524793 -0.117300 7.007561 -0.023171 -0.014895 
-7.625435 13.354099 1.398971 -12.545284 79.557106 -1.045868 -3.634636 11.519742 -51.041013 -8.462791 14.723351 49.130344 -7.574321 17.507585 8.642758 0.375507 3.982972 10.986904 -3.340859 -13.764354 -20.276998 -0.537729 -21.561190 77.166373 13.564920 -7.925103 -10.061068 -4.398380 -12.188934 33.869346 1.313799 -3.238090 -6.589947 -4.141093 -1.366657 27.442738 1.031300 1.460249 9.727255 5.176119 3.896735 -25.453768 -83.227871 -63.938576 20.202434 24.501823 -29.892369 -18.233550 14.271452 -1.777256 -1.337393 -6.828403 -0.005522 0.030079 71.811344 46.883338 28.356019 -31.129826 27.501019 -38.833039 -13.766023 -4.812727 -0.101725 7.016196 -0.019387 -0.010286 
-7.136471 13.432327 1.396847 -12.834898 80.075310 -0.522212 -4.545906 10.923145 -51.642723 -9.105527 15.670030 51.074934 -7.466866 17.477069 8.813383 0.322936 3.675504 10.116044 -2.840823 -13.140777 -20.698762 -0.208290 -21.665789 78.054930 13.556269 -7.999439 -9.781616 -3.803642 -11.403727 32.449210 1.201759 -2.859221 -6.618206 -4.027614 -1.762552 26.980064 0.940357 1.393780 9.258031 6.395942 4.141145 -24.567332 -86.111990 -63.002610 24.750502 24.984894 -28.611195 -19.440921 14.094882 -1.325813 -1.646774 -6.842895 -0.000722 0.034004 72.487583 45.006458 29.003049 -31.989647 27.615898 -41.026362 -14.093425 -5.026505 -0.067600 7.025869 -0.015464 -0.005471 
-6.670526 13.501952 1.377144 -15.472880 80.590347 -2.654320 -5.676539 10.056547 -51.986553 -9.691779 16.521589 52.813758 -7.440794 17.488652 8.928478 0.306112 3.551039 9.750969 -2.291591 -12.338683 -21.314332 0.278742 -21.856025 78.974390 13.137671 -8.026181 -9.333336 -3.502391 -11.003095 31.990940 1.091266 -2.545188 -6.638810 -3.683645 -2.306614 26.528842 0.838629 1.327689 8.746452 7.762288 4.320780 -23.681633 -88.579717 -62.236592 29.010720 25.617038 -27.430937 -20.656616 13.832776 -0.862665 -1.917046 -6.856244 0.004080 0.037991 73.050905 43.802101 29.797151 -32.792838 27.647719 -43.107989 -14.373269 -5.171924 -0.046014 7.034812 -0.011483 -0.000578 
-6.211817 13.555721 1.369746 -18.887506 81.359276 -5.776923 -6.889100 9.130730 -52.081167 -10.234817 17.235708 54.260909 -7.513617 17.520915 9.024947 0.358029 3.790893 10.384578 -1.753714 -11.415991 -22.044092 0.805343 -22.297780 79.951405 12.642626 -8.444263 -8.217843 -3.478352 -10.989077 32.603789 1.013965 -2.290251 -6.733727 -3.273099 -2.784322 26.120689 0.705821 1.241791 8.249981 9.289857 4.403354 -22.795551 -90.840227 -61.709145 33.082034 26.221540 -26.207873 -21.795256 13.361091 -0.420922 -2.117869 -6.867905 0.008601 0.042001 73.521336 43.305672 30.661196 -33.408077 27.607233 -44.941818 -14.740283 -5.320534 -0.054976 7.042941 -0.007706 0.004214 
-5.754084 13.606577 1.388607 -22.488663 82.385277 -9.056768 -7.960296 8.096915 -51.814872 -10.736296 17.866158 55.491189 -7.790064 17.748381 9.019689 0.486804 4.326427 11.812935 -1.180225 -10.435697 -22.874594 1.408079 -22.788892 80.726015 12.267291 -9.243253 -6.585451 -3.633774 -11.220699 33.890298 0.907643 -2.061332 -6.733818 -3.313805 -3.013372 25.932701 0.547897 1.121935 7.729787 10.867724 4.330282 -21.866238 -92.866525 -61.594268 36.532555 26.771186 -25.111999 -22.757291 12.835187 -0.096006 -2.317389 -6.875287 0.012296 0.045192 74.292543 43.642005 31.759098 -33.886979 27.467624 -46.523527 -14.902102 -5.392553 -0.124247 7.047737 -0.004634 0.008144 
-5.301321 13.663393 1.430833 -25.437986 83.286415 -11.655134 -8.954702 7.136639 -51.327558 -11.079866 18.397741 56.585524 -8.232726 18.134584 8.932240 0.662428 4.949654 13.505621 -0.576517 -9.595588 -24.108358 1.736448 -23.364987 81.689239 12.057845 -10.070689 -4.567383 -3.808653 -11.464867 35.078540 0.827394 -1.909236 -6.826029 -3.301554 -2.999371 25.752001 0.380415 1.004209 7.298748 12.419859 4.119742 -20.973802 -94.549977 -61.507935 39.608128 27.083836 -24.037275 -23.397846 12.172898 0.095175 -2.440812 -6.879131 0.014765 0.047183 75.057427 44.473386 32.882907 -33.986779 27.339666 -47.508326 -15.179563 -5.468696 -0.187483 7.049096 -0.002486 0.010924 
-4.854264 13.730706 1.477207 -27.362179 84.278252 -13.071217 -10.080827 6.133575 -51.250046 -11.416713 19.216246 57.761696 -8.808424 18.555233 8.813207 0.845784 5.524448 15.104200 0.178184 -8.929126 -25.783342 1.454793 -24.185852 82.891432 12.099107 -10.919240 -2.683718 -3.907101 -11.598157 35.707922 0.817123 -1.822706 -7.187764 -3.435663 -2.818879 26.162646 0.214594 0.952486 7.245552 13.863388 3.741664 -20.264595 -95.768871 -61.373884 41.617136 27.290110 -23.410903 -23.877076 11.356030 0.250212 -2.509824 -6.874108 0.016046 0.047944 76.004659 46.131392 33.843672 -34.167630 27.474183 -48.264030 -15.329670 -5.464967 -0.246124 7.041656 -0.001831 0.012014 
-4.434174 13.791907 1.522553 -32.812950 85.215744 -18.129774 -10.761420 5.309897 -50.580444 -11.593017 19.853991 59.008846 -9.325838 18.942089 8.737656 1.048783 6.084770 16.661817 0.880547 -8.369561 -27.335074 0.943590 -24.807237 83.883577 12.250795 -11.531364 -1.433565 -3.952100 -11.659796 35.929447 0.827382 -1.731687 -7.290642 -3.472625 -2.586827 26.625156 -0.009842 0.882694 7.193550 15.359057 3.266274 -19.528445 -96.436752 -61.636224 42.367791 27.683609 -23.122539 -24.448358 10.499979 0.383504 -2.526839 -6.869062 0.016134 0.047855 77.129750 48.340718 34.827264 -34.079140 27.767427 -48.415793 -15.533516 -5.445877 -0.276137 7.035869 -0.002183 0.012047 
-4.034414 13.848228 1.565736 -39.149872 85.516022 -24.179087 -10.921358 5.093755 -49.418996 -11.775803 20.220547 60.195472 -9.561867 19.030759 8.720263 1.262225 6.580299 18.029503 1.224270 -8.004690 -28.241751 0.629275 -24.959592 84.193655 12.376949 -11.731761 -0.960043 -3.968884 -11.665087 36.041689 0.873339 -1.629676 -7.313777 -3.637786 -2.074028 26.989666 -0.283033 0.767643 7.145437 16.804429 2.784872 -18.704201 -95.596296 -62.567655 41.507356 27.889743 -22.796271 -24.640695 10.048480 0.528070 -2.523771 -6.855524 0.016955 0.048965 77.910565 50.868589 35.399574 -33.846865 28.165859 -48.282021 -15.746864 -5.234630 -0.205392 7.022121 -0.002477 0.012537 
-3.661366 13.910210 1.598949 -50.529392 85.616112 -35.274521 -10.693654 5.525113 -48.046015 -11.921696 20.243063 61.366643 -9.530692 18.843916 8.684223 1.491716 7.052772 19.302412 1.611483 -7.786917 -29.309277 0.601406 -24.977044 84.242786 12.879204 -12.129504 -1.480448 -4.005968 -11.671158 36.162085 0.883041 -1.680323 -7.300489 -4.002587 -1.746341 26.971046 -0.572090 0.600420 7.168220 18.405125 2.389155 -17.547881 -93.004722 -63.738640 39.003458 27.721087 -22.508895 -24.045907 9.471296 0.498972 -2.354260 -6.814240 0.016636 0.046104 78.357128 53.237640 35.565888 -33.105875 28.368094 -47.015792 -15.848613 -4.986127 -0.096584 6.978199 -0.002095 0.012315 
-3.304685 13.968498 1.626381 -61.906971 85.509636 -46.461094 -10.530524 6.044435 -47.407268 -11.415287 20.291085 62.628532 -9.195501 18.597832 8.878823 1.721442 7.393864 20.146967 1.956475 -7.701576 -30.429066 0.299188 -25.162173 84.048802 12.944342 -11.815661 -3.364812 -4.080975 -11.745212 36.311675 0.909592 -1.837949 -7.530931 -4.120283 -1.596866 27.301532 -0.872877 0.433350 7.291924 19.971218 2.122912 -16.158969 -89.374489 -65.410334 35.632510 27.649813 -22.194243 -23.659609 9.267145 0.475405 -2.213584 -6.751537 0.015332 0.039701 78.145947 55.931815 35.086055 -32.182870 28.416881 -45.134617 -15.691884 -4.557734 0.094507 6.913504 -0.001008 0.011455 
-2.961126 14.028904 1.650556 -71.269341 85.145607 -55.439491 -10.114609 6.243530 -46.679657 -11.054977 19.794545 63.258468 -8.698583 17.768908 8.841381 1.951653 7.771378 20.652175 2.597277 -7.491404 -31.973699 -0.808623 -24.841505 83.255802 12.543188 -11.207539 -5.840972 -3.991106 -11.575509 36.006350 0.990779 -1.854449 -7.860056 -3.203684 -1.503194 26.970766 -1.260592 0.529496 8.417703 21.036454 2.099219 -14.434266 -85.077011 -64.885022 31.537244 26.895026 -22.414812 -22.612927 9.316400 0.536054 -2.153898 -6.710727 0.014777 0.036158 77.762711 55.727270 34.432116 -30.960136 28.681769 -42.511796 -15.220723 -4.194534 0.206370 6.870441 0.001062 0.011479 
